<svg xmlns="http://www.w3.org/2000/svg" viewBox="0 0 100 100" width="100" height="100" role="img" aria-label="1000 chip">
  <title>1000 chip</title>
  <circle cx="50" cy="50" r="48" fill="#92400e"/>
  <circle cx="50" cy="50" r="45" fill="#f59e0b"/>
  <g>
    <rect x="82" y="45" width="14" height="10" rx="2.5" fill="#451a03" opacity="0.85" transform="rotate(0 89 50)"/>
    <rect x="62.5" y="78.77" width="14" height="10" rx="2.5" fill="#451a03" opacity="0.85" transform="rotate(60 69.5 83.77)"/>
    <rect x="23.5" y="78.77" width="14" height="10" rx="2.5" fill="#451a03" opacity="0.85" transform="rotate(120 30.5 83.77)"/>
    <rect x="4" y="45" width="14" height="10" rx="2.5" fill="#451a03" opacity="0.85" transform="rotate(180 11 50)"/>
    <rect x="23.5" y="11.23" width="14" height="10" rx="2.5" fill="#451a03" opacity="0.85" transform="rotate(240 30.5 16.23)"/>
    <rect x="62.5" y="11.23" width="14" height="10" rx="2.5" fill="#451a03" opacity="0.85" transform="rotate(300 69.5 16.23)"/>
  </g>
  <circle cx="50" cy="50" r="31" fill="#92400e" opacity="0.18"/>
  <circle cx="50" cy="50" r="31" fill="none" stroke="#451a03" stroke-width="2" opacity="0.6"/>
  <text x="50" y="51" font-family="'Helvetica Neue', Arial, sans-serif" font-size="24"
    font-weight="700" fill="#451a03" text-anchor="middle" dominant-baseline="middle">1K</text>
</svg>
